<svg width="400" height="282.331" xmlns="http://www.w3.org/2000/svg"><g fill-rule="evenodd"><path d="M195.269 111.441c.003.621.061.842.129.491.067-.352.065-.86-.006-1.13-.071-.27-.126.017-.123.639" fill="#f30"/><path d="M294.492 9.913c-4.414.29-11.173 1.056-12.006 1.361-.389.143-1.723.41-2.966.595s-2.387.427-2.543.539c-.155.112-1.172.37-2.259.573-1.088.203-2.105.461-2.26.573-.156.112-1.077.367-2.048.567-.971.199-1.766.455-1.766.568 0 .113-.763.367-1.695.565-.932.198-1.695.454-1.695.568 0 .115-.381.285-.847.379-.466.093-1.413.426-2.103.741-.691.315-1.335.572-1.431.572-.096 0-.87.318-1.719.706-.849.389-1.667.707-1.818.707a.279.279 0 00-.274.282c0 .155-.183.283-.406.283-.396 0-6.093 2.756-6.374 3.083-.077.091-.586.39-1.129.665-.544.276-1.498.81-2.119 1.188-.622.377-1.321.782-1.554.898-.374.187-1.113.66-2.921 1.868-.287.192-1.27.889-2.185 1.549-.916.66-1.789 1.201-1.942 1.201-.152 0-.413.254-.579.564-.166.311-.482.565-.702.565-.22 0-.501.159-.626.354-.124.194-.828.812-1.564 1.373-3.426 2.612-11.581 10.444-14.198 13.634a91.33 91.33 0 01-1.415 1.695 41.819 41.819 0 00-2.258 2.85c-.31.441-.755 1.014-.988 1.273-1.033 1.147-4.52 6.367-4.52 6.766 0 .167-.104.304-.23.304-.127 0-.447.413-.712.918a51.377 51.377 0 01-1.161 2.048 63.543 63.543 0 00-1.618 2.966c-.517 1.01-1.018 1.9-1.112 1.978-.095.077-.343.618-.551 1.2-.209.583-.481 1.06-.605 1.06s-.226.123-.226.274c0 .15-.305.945-.677 1.765-1.298 2.857-2.148 5.009-2.148 5.438 0 .238-.112.432-.249.432s-.4.602-.585 1.338c-.186.736-.439 1.467-.563 1.624-.123.158-.392.986-.597 1.84-.204.855-.463 1.681-.574 1.837-.11.155-.343.854-.516 1.553a94.751 94.751 0 01-.719 2.684c-.613 2.135-1.53 6.271-1.848 8.333-.156 1.01-.401 2.472-.544 3.249-.143.777-.344 2.874-.445 4.661-.102 1.786-.26 3.439-.351 3.672-.387.986-.327 7.621.077 8.587.975 2.335 4.486 3.044 6.403 1.293.928-.848.937-.878 1.132-4.166.108-1.822.261-3.821.339-4.443.079-.621.296-3.068.483-5.438.186-2.369.419-4.307.517-4.307.099 0 .345-1.24.548-2.755.202-1.515.468-2.881.591-3.036.122-.156.373-1.17.559-2.255.185-1.085.44-2.102.567-2.26.126-.158.322-.733.436-1.276.25-1.202 1.46-4.893 2.005-6.117.218-.489.397-1.037.397-1.218 0-.18.302-.987.672-1.793.369-.806.846-1.909 1.059-2.452.574-1.462 5.152-10.419 5.696-11.144.123-.165.658-.998 1.188-1.853.531-.854 1.066-1.68 1.189-1.836a40.45 40.45 0 001.067-1.554c1.357-2.048 4.932-6.752 6.425-8.455 1.813-2.068 8.706-9.058 8.936-9.062.099-.001.823-.605 1.609-1.341.786-.737 1.912-1.721 2.502-2.187.589-.466 1.344-1.075 1.678-1.353 3.725-3.109 13.613-8.963 19.391-11.481 1.165-.508 2.359-1.05 2.654-1.205.294-.155 1.248-.528 2.119-.829 2.884-.997 7.511-2.557 7.798-2.63.155-.04.473-.142.706-.227 1.856-.68 8.934-2.133 12.744-2.616 1.805-.229 3.839-.492 4.52-.585.681-.093 3.417-.253 6.08-.356 5.365-.207 5.563-.281 6.701-2.503.922-1.8.16-4.036-1.739-5.103-1.224-.688-2.044-.721-8.108-.323M199.294 23.28c-1.063.472-3.992 3.522-8.475 8.826-.311.367-.782.953-1.047 1.301a85 85 0 01-1.201 1.521c-.395.488-.718 1.022-.718 1.186 0 .164-.159.4-.353.525-.456.291-2.189 2.775-2.189 3.137 0 .152-.191.35-.424.439-.233.09-.424.288-.424.442 0 .24-.954 1.833-1.62 2.705-.119.155-.406.663-.639 1.13-.233.466-.513.914-.622.997-.402.302-5.311 10.249-5.311 10.761 0 .292-.127.53-.283.53-.156 0-.437.572-.624 1.271s-.425 1.271-.529 1.271c-.103 0-.266.392-.362.87a9.779 9.779 0 01-.583 1.766c-.61 1.337-1.796 4.985-2.012 6.192-.104.582-.285 1.059-.403 1.059-.117 0-.382.953-.59 2.119-.207 1.165-.457 2.118-.557 2.118-.099 0-.348 1.113-.553 2.472-.204 1.36-.467 2.599-.584 2.754-.116.156-.362 1.808-.545 3.673-.184 1.864-.482 3.695-.662 4.068-.463.956-.464 23.39-.001 24.349.18.373.472 2.128.649 3.9.176 1.771.424 3.424.55 3.672.126.248.387 1.468.581 2.711.193 1.243.445 2.387.559 2.543.115.155.376 1.204.582 2.33.205 1.126.469 2.048.585 2.048.117 0 .301.54.408 1.201.107.66.367 1.582.578 2.048.21.466.529 1.451.71 2.189.181.738.426 1.342.546 1.342.12 0 .305.476.411 1.059.106.583.364 1.325.573 1.65.209.325.523 1.119.697 1.765.174.647.438 1.175.588 1.175.149 0 .271.224.271.497 0 .601 4.777 10.214 5.368 10.803.078.078.332.523.565.989.233.466.55.995.706 1.177.155.181.663.973 1.13 1.76.466.787.942 1.433 1.059 1.436.116.003.212.164.212.358 0 .194.286.7.636 1.123.349.423.953 1.225 1.341 1.781.389.556 1.925 2.561 3.415 4.456 7.746 9.855 10.622 11.465 13.752 7.702 1.213-1.459.738-3.683-1.222-5.722a90.667 90.667 0 01-2.653-2.896 197.091 197.091 0 00-1.996-2.278 47.1 47.1 0 01-1.911-2.33c-.565-.738-1.127-1.341-1.251-1.341-.123 0-.224-.135-.224-.299 0-.242-1.402-2.233-1.978-2.809-.077-.077-.302-.395-.498-.706-.988-1.562-1.468-2.286-1.686-2.542-.133-.156-.672-1.046-1.199-1.978-.527-.932-1.044-1.758-1.15-1.836-.106-.078-.282-.426-.391-.775-.108-.349-.348-.794-.532-.989-.499-.528-4.111-7.86-4.315-8.758-.097-.428-.276-.777-.398-.777s-.308-.345-.414-.767c-.106-.422-.423-1.28-.705-1.907s-.6-1.553-.708-2.058c-.107-.505-.295-.918-.417-.918s-.383-.763-.581-1.695c-.198-.932-.446-1.695-.552-1.695-.105 0-.359-.858-.563-1.907-.204-1.048-.467-2.034-.584-2.189-.117-.155-.375-1.236-.573-2.401-.198-1.165-.455-2.246-.571-2.401-.115-.156-.362-1.554-.548-3.108-.185-1.553-.447-3.079-.582-3.389-1.014-2.343-1.018-24.438-.006-26.837.131-.31.433-1.899.67-3.531.493-3.385 1.242-7.003 1.58-7.627.126-.233.4-1.281.607-2.33.208-1.049.465-1.907.57-1.907.106 0 .354-.763.552-1.695.198-.932.449-1.695.558-1.695.11 0 .367-.699.572-1.553.205-.855.466-1.554.579-1.554.114 0 .294-.35.401-.777.106-.427.392-1.222.634-1.766 1.328-2.981 2.171-4.782 2.711-5.79.333-.622.856-1.639 1.161-2.26.306-.622.634-1.194.729-1.272.095-.077.34-.554.544-1.059.205-.505.47-.918.589-.918.12 0 .29-.286.378-.636.088-.349.358-.889.599-1.2.241-.311.848-1.201 1.348-1.978.5-.776 1.011-1.539 1.134-1.694.124-.156.635-.918 1.135-1.694.501-.776 1.102-1.619 1.335-1.873.233-.254.678-.798.988-1.209.311-.411.693-.903.85-1.093l1.095-1.335c1.2-1.464 4.128-4.748 5.259-5.898 1.853-1.885 2.26-2.602 2.26-3.981 0-3.029-2.932-4.834-5.791-3.564m102.694 18.155c-1.626.061-3.025.211-3.108.332-.083.122-2.056.38-4.384.574-2.328.194-4.298.449-4.378.566-.081.118-1.29.379-2.689.58-1.398.201-2.669.462-2.824.58-.156.118-1.17.365-2.255.551-1.085.185-2.102.438-2.26.562-.158.125-.987.387-1.841.583-.855.196-1.681.447-1.837.558-.155.111-.918.373-1.694.583-.777.21-1.731.546-2.119.748-.389.202-.878.368-1.087.369-.21.001-.846.209-1.413.463-.567.253-1.571.698-2.232.988-5.272 2.317-9.476 4.365-11.611 5.657-.986.597-1.85 1.086-1.918 1.086-.068 0-.468.235-.889.524-.421.288-1.973 1.325-3.449 2.305-2.837 1.884-6.822 4.841-7.68 5.698-.282.282-.607.513-.724.515-.116.001-1.165.901-2.33 2a165.91 165.91 0 01-3.784 3.45c-3.938 3.437-3.111 8.074 1.444 8.098 1.929.009 2.259-.206 6.009-3.917.802-.793 1.543-1.444 1.648-1.447.105-.002.504-.334.886-.737.382-.403 1.141-1.068 1.686-1.478.544-.41 1.196-.936 1.447-1.17.252-.233.747-.614 1.101-.847.553-.364 2.049-1.464 2.981-2.191.155-.121 1.299-.883 2.542-1.693 1.243-.811 2.387-1.578 2.542-1.706.156-.128.696-.415 1.201-.639.505-.223.918-.488.918-.589 0-.101.309-.26.686-.355.378-.095.855-.337 1.06-.538.497-.487 7.789-4.065 8.777-4.307.427-.105.776-.288.776-.407s.382-.292.848-.386c.466-.093 1.419-.43 2.119-.748.699-.319 1.652-.656 2.118-.749.466-.093.848-.26.848-.372 0-.111.731-.363 1.624-.561.893-.197 1.751-.453 1.907-.569.155-.116 1.108-.368 2.118-.56 1.01-.192 1.964-.452 2.119-.577.155-.125 1.299-.385 2.542-.578 1.243-.194 2.39-.452 2.548-.574.158-.123 1.683-.369 3.39-.547 1.706-.178 3.407-.473 3.78-.655.952-.465 21.975-.469 22.937-.004.373.18 2.172.481 3.998.669 1.825.188 3.319.432 3.319.542 0 .11 1.049.36 2.331.556 1.281.196 2.457.461 2.613.589.155.128 1.108.382 2.118.565 1.01.182 1.964.434 2.119.558.155.125 1.013.388 1.907.585.893.198 1.624.446 1.624.552 0 .105.699.36 1.554.565.854.205 1.553.452 1.553.548 0 .097.574.345 1.275.552.701.207 1.745.616 2.32.909.574.293 1.261.533 1.526.533.265 0 .524.103.576.229.052.127 1.598.985 3.436 1.907 4.26 2.138 4.819 2.434 4.992 2.64.077.093.522.359.988.592.466.233.975.52 1.13.639.156.119 1.681 1.133 3.39 2.253s3.263 2.167 3.453 2.326c.191.16.636.508.989.774.354.267 1.158.903 1.788 1.413.629.51 1.7 1.373 2.378 1.916.679.544 2.261 1.988 3.516 3.209 3.396 3.301 3.375 3.289 5.384 3.289 1.977 0 2.807-.51 3.638-2.233 1.157-2.397.017-4.155-6.104-9.416-.951-.818-1.941-1.69-2.199-1.939-.943-.908-6.186-4.774-6.473-4.774-.163 0-.296-.124-.296-.275 0-.152-.407-.486-.905-.743-.497-.257-1.078-.642-1.291-.855-.213-.213-.569-.387-.791-.387-.222 0-.403-.13-.403-.289 0-.16-.286-.412-.636-.56-.349-.149-1.144-.592-1.765-.985a37.125 37.125 0 00-2.26-1.3 53.644 53.644 0 01-2.26-1.257c-1.328-.788-2.932-1.541-3.283-1.541-.137 0-.248-.127-.248-.283 0-.155-.151-.282-.335-.282-.184 0-.851-.24-1.483-.534-3.642-1.691-4.469-2.037-5.24-2.191-.469-.094-.852-.273-.852-.397 0-.125-.699-.384-1.554-.575-.854-.191-1.553-.442-1.553-.557 0-.115-.668-.366-1.483-.557-.816-.191-1.61-.447-1.766-.568-.155-.122-1.077-.385-2.048-.585-.971-.2-1.765-.454-1.765-.564 0-.11-.922-.359-2.048-.554-1.127-.194-2.178-.451-2.336-.57-.158-.12-1.429-.373-2.825-.562-1.395-.19-2.669-.446-2.83-.57-.162-.124-2.005-.37-4.096-.547-2.092-.177-4.008-.428-4.259-.558-.527-.274-12.262-.536-16.624-.371m-11.169 27.94c-1.779.64-2.683 1.898-2.683 3.735 0 3.188 1.714 4.291 6.672 4.291 3.84 0 10.505.494 11.265.835.311.139 1.837.406 3.39.594 1.554.188 2.955.443 3.113.566.158.124 1.175.377 2.26.563 1.084.185 2.099.431 2.254.547.156.116.982.366 1.837.555.854.19 1.935.514 2.401.72.466.207 1.324.464 1.906.572.583.108 1.06.3 1.06.427 0 .126.699.387 1.553.578.855.191 1.554.441 1.554.555 0 .113.35.293.777.398 1.145.282 9.5 4.299 12.278 5.902 4.368 2.521 10.95 7.163 14.488 10.217 6.373 5.502 10.443 9.871 15.418 16.553 1.905 2.558 1.976 2.66 3.425 4.91.5.776.993 1.476 1.094 1.553.101.078.273.427.382.775.109.349.348.798.532.998.957 1.039 6.107 11.46 6.558 13.27.107.427.287.777.401.777.114 0 .374.699.579 1.553.205.855.462 1.554.572 1.554.109 0 .36.763.558 1.695.198.932.444 1.695.547 1.695.103 0 .352.794.552 1.765.2.971.457 1.893.571 2.048.114.156.367 1.173.561 2.26.193 1.088.469 2.232.612 2.543.712 1.55 1.901 12.175 1.935 17.293.026 4.02.522 5.773 1.742 6.16.298.095.542.291.542.436 0 .145.827.263 1.837.263 1.035 0 1.836-.123 1.836-.282 0-.156.171-.283.38-.283.558 0 1.292-.916 1.61-2.009.324-1.114-.171-13.575-.569-14.329-.137-.258-.401-1.963-.587-3.789-.185-1.826-.423-3.319-.529-3.319-.106 0-.352-1.109-.548-2.464-.196-1.355-.459-2.594-.585-2.754-.125-.16-.386-1.149-.579-2.197-.194-1.049-.439-1.907-.546-1.907-.107 0-.35-.755-.54-1.677-.191-.922-.533-2.034-.761-2.472-.228-.437-.416-.961-.417-1.163-.001-.203-.259-.934-.574-1.625-.314-.69-.648-1.637-.741-2.103-.093-.466-.281-.847-.417-.847-.136 0-.247-.205-.247-.455 0-.595-.819-2.41-3.352-7.428-2.752-5.451-2.932-5.794-3.123-5.959-.091-.078-.355-.523-.587-.989-.233-.466-.582-.949-.776-1.073-.195-.124-.354-.386-.354-.581 0-.195-.286-.749-.636-1.231a72.582 72.582 0 01-2.82-4.177c-.197-.311-.517-.667-.711-.791-.194-.124-.353-.382-.353-.573 0-.19-.222-.553-.494-.805-.272-.251-1.184-1.36-2.027-2.463-.843-1.104-1.637-2.006-1.765-2.006-.129 0-.234-.126-.234-.279 0-.729-11.36-12.151-12.086-12.151-.163 0-.338-.11-.39-.246-.114-.297-4.925-4.273-5.17-4.273-.182 0-.66-.364-1.583-1.201-.3-.272-.619-.494-.71-.494-.155 0-2.628-1.664-2.942-1.978-.078-.078-.523-.332-.989-.565-.466-.232-.911-.486-.988-.564-.392-.393-1.987-1.405-2.978-1.89-1.342-.655-2.38-1.245-2.955-1.679-.233-.176-.741-.413-1.13-.528-.388-.114-.896-.368-1.129-.565-.234-.196-.742-.452-1.13-.569-.389-.117-.77-.294-.848-.393-.237-.302-6.978-3.134-7.459-3.134-.248 0-.45-.111-.45-.247s-.392-.325-.87-.421a10.372 10.372 0 01-1.766-.57c-1.144-.507-5.395-1.808-6.687-2.048-.543-.101-1.115-.276-1.271-.389-.155-.113-1.172-.358-2.26-.546-1.087-.187-2.231-.455-2.542-.596-.311-.14-1.9-.454-3.531-.696a345.858 345.858 0 01-4.661-.723c-.932-.156-3.856-.402-6.497-.547-2.641-.145-5.375-.321-6.074-.391-.724-.073-1.757.046-2.401.278m-153.061 33.699c-1.656 1.092-1.882 1.878-1.882 6.537 0 2.632.106 4.231.282 4.231.156 0 .282.729.282 1.624-.001 2.198.583 7.771.852 8.122.118.155.303 1.108.409 2.118.209 1.978 1.371 7.341 1.989 9.181.209.621.468 1.575.575 2.119.108.543.324 1.147.48 1.341.157.195.19.354.074.354s-.085.158.068.353c.153.194.367.734.476 1.2.264 1.129 2.516 6.914 3.519 9.04 2.052 4.345 4.024 8.177 5.599 10.875.317.544.816 1.402 1.107 1.905.292.504.626.918.743.919.116.001.211.167.211.369 0 .385 1.667 2.811 2.044 2.975.119.052.216.218.216.37 0 .151.791 1.317 1.757 2.589 5.765 7.593 10.834 12.947 17.17 18.135 1.32 1.081 2.503 2.127 2.627 2.324.124.197.368.358.541.358.174 0 .517.185.763.411 1.408 1.292 1.735 1.555 2.315 1.866.351.188.774.455.939.593.166.139.936.657 1.713 1.152.777.496 1.476.977 1.554 1.071.077.094.904.598 1.836 1.122.932.523 1.758 1.023 1.836 1.111.078.089.523.351.989.584.466.232.911.504.989.603.077.099.586.381 1.129.627.544.245 2.062 1.02 3.372 1.722 1.311.702 2.836 1.423 3.39 1.604.554.18 1.07.417 1.148.527.078.109.523.335.989.502.623.222-3.129.308-14.161.325-16.125.023-16.243.034-17.465 1.485-1.387 1.648-.678 5.295 1.196 6.148.886.404 72.592.418 73.653.015 2.874-1.093 2.877-5.732.005-7.222-.338-.176-2.766-.409-5.396-.519-4.649-.194-8.854-.549-10.29-.867-.388-.086-1.596-.285-2.683-.441-3.023-.435-9.136-1.904-11.865-2.851a69.209 69.209 0 00-2.119-.678c-1.89-.572-4.365-1.452-4.973-1.768-.294-.153-1.234-.568-2.089-.922-.854-.355-2.189-.926-2.966-1.27-.777-.344-1.698-.713-2.048-.819-.349-.107-.635-.299-.635-.427s-.35-.32-.777-.427c-.427-.106-.968-.356-1.201-.554-.233-.199-.837-.538-1.342-.753-.505-.216-.918-.489-.918-.607 0-.117-.166-.213-.369-.213-.202 0-1.346-.636-2.542-1.412-1.195-.777-2.289-1.413-2.432-1.413-.143 0-.302-.095-.353-.212-.147-.331-2.693-2.048-3.036-2.048-.169 0-.307-.114-.307-.254s-.413-.519-.918-.841c-1.541-.985-1.958-1.283-2.606-1.871a72.766 72.766 0 00-1.811-1.554c-7.583-6.313-13.802-13.193-18.882-20.892-1.286-1.949-2.433-3.67-2.549-3.825-.116-.155-.402-.664-.635-1.13-.233-.466-.499-.911-.592-.989-.307-.257-5.051-9.702-5.068-10.09-.005-.121-.255-.729-.555-1.35-.3-.622-.55-1.294-.555-1.495-.006-.2-.249-.836-.541-1.412-.291-.577-.625-1.493-.741-2.037-.116-.544-.302-1.052-.412-1.13-.215-.152-.915-2.614-1.644-5.791-.25-1.087-.536-2.041-.635-2.118-.1-.078-.34-1.159-.535-2.402-.194-1.243-.467-2.514-.607-2.824-.542-1.21-1.594-11.659-1.645-16.34-.048-4.441-3.002-6.753-6.057-4.739m191.865 4.617c-.409.353-.83.96-.935 1.349a9.107 9.107 0 01-.508 1.347c-.236.479-.231.726.018.975.183.183.333.601.333.929 0 .346.739 1.365 1.766 2.433a119.614 119.614 0 013.319 3.627 175.78 175.78 0 002.33 2.637c.428.466.777.937.777 1.047 0 .109.315.567.699 1.017 1.254 1.467 1.409 1.669 2.267 2.946.466.694.953 1.389 1.081 1.544.616.748 3.819 5.926 4.569 7.388.466.909.918 1.715 1.005 1.793.239.216 2.642 5.242 3.645 7.627a386.241 386.241 0 001.138 2.684c.135.311.399 1.073.585 1.695.186.621.433 1.257.548 1.412.114.156.365.95.556 1.767.192.816.448 1.545.57 1.62.121.076.377.965.568 1.977.191 1.012.443 1.84.559 1.84.116 0 .369.985.562 2.189.193 1.204.45 2.316.573 2.472.123.155.375 1.49.56 2.966.185 1.476.446 2.938.58 3.248 1.072 2.478 1.072 26.329.001 28.814-.134.311-.4 1.772-.591 3.248-.191 1.476-.442 2.811-.557 2.967-.115.155-.365 1.235-.556 2.401-.191 1.165-.456 2.254-.59 2.42-.133.166-.387.992-.565 1.836-.178.844-.427 1.663-.552 1.821-.126.157-.384.92-.573 1.695-.189.775-.436 1.536-.549 1.691-.113.155-.358.791-.544 1.412-.186.622-.45 1.385-.585 1.695-.136.311-.645 1.519-1.132 2.684-2.555 6.112-8.927 17.173-11.577 20.097-.233.257-.741.928-1.13 1.49a24.26 24.26 0 01-1.412 1.829c-2.24 2.557-4.562 5.126-5.862 6.487-.836.875-1.483 1.814-1.483 2.153 0 .329-.156.755-.346.945-.256.257-.266.475-.036.843.171.273.396.886.5 1.362.579 2.636 4.714 2.927 7.095.499 1.494-1.524 4.086-4.418 5.405-6.037.44-.539.991-1.191 1.224-1.449.233-.258.678-.804.989-1.215.31-.411.696-.903.857-1.093.161-.19.733-.982 1.271-1.759.539-.776 1.138-1.514 1.332-1.638.194-.124.353-.355.353-.513 0-.158.318-.704.706-1.213.389-.509.707-1.073.707-1.253 0-.179.12-.326.267-.326.147 0 .433-.314.635-.697.203-.383 1.272-2.258 2.376-4.167 1.104-1.908 2.107-3.787 2.228-4.176.121-.388.307-.769.414-.847.187-.136 1.305-2.428 2.482-5.085.309-.699.77-1.735 1.023-2.302.254-.568.462-1.12.462-1.229 0-.108.188-.597.418-1.087.534-1.135 1.51-3.947 1.878-5.41.156-.621.388-1.327.515-1.568.126-.241.393-1.194.592-2.118.199-.925.46-1.811.578-1.969.119-.158.361-1.175.537-2.26.177-1.085.434-2.226.573-2.537.139-.311.453-1.9.698-3.531.245-1.631.572-3.713.727-4.626 1.052-6.192 1.052-21.561 0-27.754-.155-.913-.482-2.994-.727-4.626-.245-1.631-.558-3.22-.696-3.531-.137-.311-.403-1.455-.59-2.542-.187-1.088-.43-2.105-.539-2.26-.109-.155-.362-1.039-.561-1.963-.199-.925-.466-1.878-.592-2.119-.127-.241-.359-.946-.515-1.568-.368-1.463-1.344-4.275-1.878-5.41-.23-.489-.418-.979-.418-1.087 0-.196-.159-.571-1.493-3.531-.385-.855-.787-1.84-.894-2.189-.107-.35-.312-.636-.457-.636-.145 0-.264-.149-.264-.331 0-.51-1.791-4.189-2.04-4.189-.121 0-.22-.139-.22-.31 0-.171-.705-1.538-1.567-3.037-1.977-3.437-2.016-3.5-3.376-5.44a359.07 359.07 0 01-1.486-2.133 203.97 203.97 0 00-1.695-2.375c-1.267-1.755-1.599-2.18-2.61-3.328a71.98 71.98 0 01-1.226-1.463c-1.861-2.275-3.259-3.85-4.977-5.607l-1.824-1.867-1.99-.079c-1.729-.07-2.086.004-2.733.562m2.495 54.722c-2.015 1.29-1.987 1.187-2.239 8.176-.127 3.5-.33 6.432-.452 6.517-.122.085-.384 1.679-.584 3.544-.2 1.864-.464 3.517-.586 3.672-.123.155-.386 1.395-.585 2.754-.199 1.36-.445 2.472-.547 2.472-.102 0-.352.858-.556 1.907-.204 1.049-.462 2.034-.573 2.189-.111.155-.369.918-.572 1.695-.204.777-.468 1.541-.588 1.699-.12.157-.375.92-.568 1.695-.192.774-.507 1.662-.699 1.973-.192.311-.436.978-.541 1.483-.105.505-.295.918-.421.918s-.315.35-.42.777c-.601 2.445-5.033 10.61-8.762 16.141a402.694 402.694 0 00-2.832 4.238c-.155.25-.361.518-.457.596-.096.077-.932 1.094-1.856 2.26-.924 1.165-2.085 2.522-2.579 3.015-.494.493-.899.96-.899 1.038 0 .212-7.119 7.246-8.377 8.277a74.708 74.708 0 00-1.792 1.518c-1.339 1.188-7.35 5.643-7.616 5.643-.146 0-.367.159-.492.354-.124.194-.607.544-1.073.777-.466.232-.975.52-1.13.639-.861.658-2.421 1.588-2.937 1.752-.327.104-.594.283-.594.399 0 .116-.445.386-.989.599-.544.213-.988.466-.988.561 0 .095-.477.343-1.06.552-.582.208-1.123.456-1.2.551-.147.179-2.518 1.349-4.238 2.091-.543.235-1.717.76-2.608 1.167-.891.407-2.003.817-2.472.91-.468.094-.852.258-.852.365 0 .106-.667.361-1.483.566-.816.204-1.61.468-1.765.587-.156.118-1.014.376-1.907.573-.894.197-1.624.445-1.624.551 0 .106-.922.355-2.049.553-1.126.198-2.175.46-2.33.581-.155.122-1.299.379-2.542.573-1.243.193-2.388.45-2.544.57-.155.121-1.872.37-3.813.553-1.942.184-3.785.441-4.095.573-.311.131-3.06.342-6.11.469l-5.544.231-.844.904c-1.71 1.83-1.024 6.293.967 6.293.205 0 .372.127.372.282 0 .176 1.601.283 4.238.283 2.636 0 4.237-.107 4.237-.283 0-.155.711-.282 1.58-.282 2.183 0 8.417-.604 8.59-.832.077-.102 1.348-.352 2.824-.554 1.476-.203 2.811-.462 2.966-.576.156-.114 1.204-.367 2.33-.561 1.126-.194 2.114-.461 2.196-.594.082-.132.75-.326 1.484-.43.734-.105 1.716-.359 2.183-.565.466-.206 1.419-.522 2.118-.701.699-.18 1.399-.422 1.554-.538.155-.116.886-.374 1.624-.574.738-.2 1.342-.453 1.342-.564 0-.11.699-.368 1.554-.573.854-.205 1.553-.48 1.553-.61 0-.131.124-.238.274-.238.151 0 .946-.303 1.766-.673.82-.37 1.777-.76 2.127-.866.35-.107.636-.292.636-.412 0-.121.508-.371 1.13-.558.621-.186 1.129-.44 1.129-.565 0-.124.509-.378 1.13-.565.622-.186 1.13-.436 1.13-.557 0-.12.445-.393.989-.606.544-.213.989-.466.989-.561 0-.095.445-.334.988-.53.544-.197.989-.461.989-.588 0-.126.382-.388.848-.581.466-.193.847-.463.847-.599 0-.137.147-.248.327-.248.179 0 .719-.296 1.2-.657.481-.361 1.097-.738 1.369-.838.271-.1.494-.314.494-.474 0-.16.159-.294.353-.297.289-.005 5.824-4.017 7.294-5.287.222-.192.976-.825 1.675-1.408 1.302-1.084 9.68-9.402 11.098-11.018 1.009-1.149 5.295-6.591 5.851-7.428.233-.351.682-.97.997-1.375.524-.676 1.074-1.503 2.556-3.845.616-.974.759-1.211 2.08-3.443 1.44-2.433 4.537-8.6 4.537-9.034 0-.207.11-.376.245-.376.136 0 .406-.573.602-1.272.196-.699.453-1.271.571-1.271.118 0 .302-.345.408-.767.106-.422.428-1.284.716-1.916.288-.633.614-1.527.724-1.988.111-.46.302-.966.424-1.124.122-.157.377-.92.567-1.694.189-.775.449-1.545.578-1.711.128-.166.379-.992.557-1.836.178-.844.419-1.662.536-1.817.116-.155.372-1.172.569-2.26.196-1.087.458-2.107.582-2.265.124-.158.381-1.429.57-2.825.189-1.395.445-2.668.568-2.829.124-.161.364-2.004.535-4.096.17-2.092.426-4.185.567-4.652.638-2.094.474-10.687-.22-11.57-1.417-1.801-3.6-2.344-5.23-1.299m-38.071 40.511c-.555.385-1.826 1.506-2.825 2.49a76.415 76.415 0 01-3.484 3.202c-.917.777-1.963 1.666-2.324 1.977-.36.311-1.116.883-1.679 1.271-.563.389-1.234.897-1.491 1.13-.257.233-1.865 1.344-3.573 2.468-1.708 1.124-3.233 2.148-3.389 2.274a4.07 4.07 0 01-.706.428c-.233.109-1.186.626-2.118 1.15-3.572 2.004-11.52 5.81-12.19 5.837-.132.005-.748.255-1.37.555-.621.3-1.32.551-1.553.557-.233.007-.745.179-1.138.384-.393.205-1.344.532-2.115.726-.77.194-1.53.455-1.687.581-.158.126-1.208.391-2.334.589-1.127.199-2.048.447-2.048.553 0 .105-1.113.354-2.472.553-1.36.199-2.599.46-2.754.579-.156.119-1.872.379-3.814.577-1.942.199-3.68.475-3.862.614-.182.139-3.543.329-7.469.423l-7.138.17-.979.897c-1.808 1.657-1.536 4.891.535 6.366.847.604 11.582.711 15.523.156.544-.077 2.514-.33 4.379-.563 1.864-.233 3.771-.546 4.237-.696.466-.15 1.801-.425 2.966-.611 1.165-.186 2.246-.434 2.401-.551.156-.117.791-.299 1.413-.403 1.073-.181 1.808-.389 5.084-1.439.777-.249 2.066-.637 2.865-.862.799-.225 1.816-.599 2.26-.83.444-.232.943-.422 1.108-.423.165-.001.826-.256 1.469-.567.643-.311 1.315-.565 1.493-.565.177 0 .66-.184 1.073-.408.412-.225 2.211-1.111 3.998-1.97 3.221-1.548 6.289-3.177 8.192-4.351a36.479 36.479 0 011.907-1.089c.505-.263.918-.582.918-.709s.138-.23.307-.23c.254 0 2.053-1.153 3.217-2.062.159-.124 1.137-.835 2.172-1.58 1.036-.745 2.081-1.533 2.324-1.752.242-.218.768-.651 1.168-.962 3.156-2.451 8.343-7.276 9.242-8.598.537-.789.705-3.69.214-3.69-.155 0-.282-.168-.282-.373 0-1.623-3.888-2.461-5.671-1.223M8.536 204.425c-2.522 1.243-2.946 4.202-.909 6.343l1.046 1.1 69.078-.073 69.077-.072.802-.801c1.655-1.655.985-6.402-.904-6.402-.219 0-.398-.127-.398-.283 0-.546-136.681-.36-137.792.188m68.14 28.414c-2.102 1.93-1.866 4.97.503 6.497 1.237.797 122.271.76 123.481-.037 1.807-1.192 2.356-3.372 1.344-5.341-1.149-2.239 5.132-2.037-63.281-2.037H77.675l-.999.918m111.764 30.919c-2.45.995-2.837 5.913-.544 6.928.443.196.805.452.805.569 0 .393 24.224.257 24.933-.139 2.845-1.59 3.271-4.644.956-6.85-.587-.559-24.862-1.03-26.15-.508" fill="#fe7e31"/></g></svg>